<?xml version="1.0" encoding="UTF-8"?>
<!DOCTYPE svg PUBLIC "-//W3C//DTD SVG 1.1//EN" "http://www.w3.org/Graphics/SVG/1.1/DTD/svg11.dtd">
<svg xmlns="http://www.w3.org/2000/svg" version="1.1" width="200px" height="200px" style="shape-rendering:geometricPrecision; text-rendering:geometricPrecision; image-rendering:optimizeQuality; fill-rule:evenodd; clip-rule:evenodd" xmlns:xlink="http://www.w3.org/1999/xlink">
<g><path style="opacity:1" fill="#fdfefe" d="M -0.5,-0.5 C 66.1667,-0.5 132.833,-0.5 199.5,-0.5C 199.5,66.1667 199.5,132.833 199.5,199.5C 132.833,199.5 66.1667,199.5 -0.5,199.5C -0.5,132.833 -0.5,66.1667 -0.5,-0.5 Z"/></g>
<g><path style="opacity:1" fill="#254298" d="M 90.5,13.5 C 88.5,13.5 86.5,13.5 84.5,13.5C 84.5,17.5 84.5,21.5 84.5,25.5C 83.5,25.5 82.5,25.5 81.5,25.5C 81.5,21.5 81.5,17.5 81.5,13.5C 79.712,13.7852 78.0453,13.4519 76.5,12.5C 78.8333,12.1667 81.1667,11.8333 83.5,11.5C 86.2695,11.5286 88.6028,12.1952 90.5,13.5 Z"/></g>
<g><path style="opacity:1" fill="#2c4796" d="M 120.5,25.5 C 116.452,25.6054 112.452,25.2721 108.5,24.5C 107.99,20.1869 108.657,16.1869 110.5,12.5C 113.764,11.6758 117.098,11.3424 120.5,11.5C 120.5,12.5 120.5,13.5 120.5,14.5C 113.5,12.8333 110.833,15.5 112.5,22.5C 115.167,22.5 117.833,22.5 120.5,22.5C 120.5,23.5 120.5,24.5 120.5,25.5 Z"/></g>
<g><path style="opacity:1" fill="#0e2f84" d="M 95.5,12.5 C 94.09,27.4316 93.09,27.7649 92.5,13.5C 93.221,11.6182 94.221,11.2848 95.5,12.5 Z"/></g>
<g><path style="opacity:1" fill="#173e94" d="M 105.5,12.5 C 105.5,16.8333 105.5,21.1667 105.5,25.5C 104.167,25.5 102.833,25.5 101.5,25.5C 101.5,21.1667 101.5,16.8333 101.5,12.5C 102.961,11.3143 104.295,11.3143 105.5,12.5 Z"/></g>
<g><path style="opacity:1" fill="#4d64ab" d="M 95.5,12.5 C 96.4511,13.9187 96.7845,15.5853 96.5,17.5C 97.8333,17.5 99.1667,17.5 100.5,17.5C 99.5525,18.9779 98.2191,19.9779 96.5,20.5C 96.5,22.1667 96.5,23.8333 96.5,25.5C 95.1667,25.5 93.8333,25.5 92.5,25.5C 91.1667,21.5 91.1667,17.5 92.5,13.5C 93.09,27.7649 94.09,27.4316 95.5,12.5 Z"/></g>
<g><path style="opacity:1" fill="#1a2c84" d="M 114.5,17.5 C 117.082,17.0254 119.082,17.6921 120.5,19.5C 117.918,19.9746 115.918,19.3079 114.5,17.5 Z"/></g>
<g><path style="opacity:1" fill="#b7ceef" d="M 101.5,12.5 C 101.5,16.8333 101.5,21.1667 101.5,25.5C 100.549,24.0813 100.216,22.4147 100.5,20.5C 99.1667,20.5 97.8333,20.5 96.5,20.5C 98.2191,19.9779 99.5525,18.9779 100.5,17.5C 100.216,15.5853 100.549,13.9187 101.5,12.5 Z"/></g>
<g><path style="opacity:1" fill="#828eba" d="M 114.5,17.5 C 115.918,19.3079 117.918,19.9746 120.5,19.5C 118.393,20.4682 116.059,20.8016 113.5,20.5C 113.263,19.209 113.596,18.209 114.5,17.5 Z"/></g>
<g><path style="opacity:1" fill="#3c5c96" d="M 90.5,13.5 C 89.0813,14.4511 87.4147,14.7845 85.5,14.5C 85.815,18.3714 85.4816,22.0381 84.5,25.5C 84.5,21.5 84.5,17.5 84.5,13.5C 86.5,13.5 88.5,13.5 90.5,13.5 Z"/></g>
<g><path style="opacity:1" fill="#e9f3fb" d="M 105.5,12.5 C 107.167,12.5 108.833,12.5 110.5,12.5C 108.657,16.1869 107.99,20.1869 108.5,24.5C 112.452,25.2721 116.452,25.6054 120.5,25.5C 120.389,26.1174 120.056,26.6174 119.5,27C 117.527,27.4955 115.527,27.6621 113.5,27.5C 113.5,28.5 113.5,29.5 113.5,30.5C 114.93,30.5792 116.264,30.2458 117.5,29.5C 119.243,31.0383 121.243,32.0383 123.5,32.5C 125.717,34.0799 128.384,35.0799 131.5,35.5C 127.919,36.0147 124.586,37.0147 121.5,38.5C 121.216,45.1983 124.216,47.1983 130.5,44.5C 129.311,43.5713 127.978,43.238 126.5,43.5C 126.5,42.1667 126.5,40.8333 126.5,39.5C 128.167,39.5 129.833,39.5 131.5,39.5C 131.5,41.5 131.5,43.5 131.5,45.5C 132.833,45.5 134.167,45.5 135.5,45.5C 131.702,46.4834 127.702,46.8168 123.5,46.5C 123.67,47.8221 123.337,48.9887 122.5,50C 126.465,50.1077 130.132,50.941 133.5,52.5C 130.223,52.2161 127.057,52.5495 124,53.5C 123.501,57.4862 123.334,61.4862 123.5,65.5C 124.833,65.5 126.167,65.5 127.5,65.5C 125.909,66.2189 124.409,67.2189 123,68.5C 122.578,66.5743 121.411,65.5743 119.5,65.5C 120.436,61.2648 120.769,56.9315 120.5,52.5C 119.167,52.5 117.833,52.5 116.5,52.5C 116.5,56.1667 116.5,59.8333 116.5,63.5C 115.167,63.5 113.833,63.5 112.5,63.5C 112.665,60.1501 112.498,56.8168 112,53.5C 110.644,52.6198 109.144,52.2865 107.5,52.5C 104.488,62.8093 108.154,67.1426 118.5,65.5C 115.689,66.475 112.689,67.1417 109.5,67.5C 109.64,69.1238 108.973,70.2904 107.5,71C 122.006,71.1688 136.339,71.6688 150.5,72.5C 115.833,72.5 81.1667,72.5 46.5,72.5C 66.3291,71.6682 86.3291,71.1682 106.5,71C 102.787,67.5111 98.4538,65.6777 93.5,65.5C 97.4367,65.7935 101.27,65.4601 105,64.5C 107.652,53.4883 103.485,49.655 92.5,53C 89.9425,57.0985 89.9425,61.2651 92.5,65.5C 89.852,66.6842 87.1853,68.0176 84.5,69.5C 83.263,69.4435 82.263,68.9435 81.5,68C 82.7112,67.1072 82.7112,66.2739 81.5,65.5C 79.6061,66.6011 78.9394,67.9345 79.5,69.5C 78.5,69.1667 77.8333,68.5 77.5,67.5C 72.6833,66.8331 68.0166,66.1665 63.5,65.5C 66.1873,65.6641 68.854,65.4974 71.5,65C 72.435,62.6194 72.7683,60.1194 72.5,57.5C 71.1779,57.33 70.0113,57.6634 69,58.5C 68.1751,64.8369 66.6751,65.0035 64.5,59C 64.4393,57.2894 65.1059,55.956 66.5,55C 69.0512,54.9977 71.0512,54.1644 72.5,52.5C 73.1667,53.1667 73.8333,53.8333 74.5,54.5C 74.5,58.1667 74.5,61.8333 74.5,65.5C 76.1667,65.5 77.8333,65.5 79.5,65.5C 79.5,61.8333 79.5,58.1667 79.5,54.5C 81.1667,54.5 82.8333,54.5 84.5,54.5C 84.8333,57.5 83.5,58.8333 80.5,58.5C 80.33,59.8221 80.6634,60.9887 81.5,62C 83.2847,64.2257 85.6181,65.3924 88.5,65.5C 87.9451,61.2941 87.6118,57.1274 87.5,53C 83.4126,52.2375 79.4126,52.4042 75.5,53.5C 75.9863,51.1933 75.9863,49.0266 75.5,47C 70.8391,46.8306 66.1724,46.9973 61.5,47.5C 61.5,46.5 61.5,45.5 61.5,44.5C 63.0418,45.3007 64.7085,45.634 66.5,45.5C 65.7307,41.2291 64.2307,37.2291 62,33.5C 60.9887,32.6634 59.8221,32.33 58.5,32.5C 58.2872,35.4509 58.9539,38.1175 60.5,40.5C 59.8333,40.8333 59.1667,41.1667 58.5,41.5C 58.1218,39.079 57.4552,36.7457 56.5,34.5C 57.404,33.791 57.7373,32.791 57.5,31.5C 61.7416,31.1505 65.7416,31.8172 69.5,33.5C 71.9479,34.4731 74.6146,34.8064 77.5,34.5C 78.0431,34.56 78.3764,34.8933 78.5,35.5C 75.4436,36.1962 72.4436,37.0296 69.5,38C 67.4501,44.6588 69.7834,46.8254 76.5,44.5C 73.6582,43.9955 72.3249,42.3289 72.5,39.5C 74.8333,39.5 77.1667,39.5 79.5,39.5C 79.5,41.5 79.5,43.5 79.5,45.5C 80.8221,45.67 81.9887,45.3366 83,44.5C 85.5969,33.598 81.4303,29.598 70.5,32.5C 75.6894,31.2984 81.0227,31.2984 86.5,32.5C 84.289,36.4536 83.9557,40.6202 85.5,45C 86.7839,45.6838 87.9505,45.5171 89,44.5C 89.4983,41.1832 89.665,37.8499 89.5,34.5C 90.8333,34.5 92.1667,34.5 93.5,34.5C 93.335,37.8499 93.5017,41.1832 94,44.5C 95.3561,45.3802 96.8561,45.7135 98.5,45.5C 99.1667,41.1667 99.8333,36.8333 100.5,32.5C 99.7659,31.2921 99.4326,29.9587 99.5,28.5C 97.5165,28.6168 95.8498,27.9501 94.5,26.5C 93.056,27.981 92.3894,27.6477 92.5,25.5C 93.8333,25.5 95.1667,25.5 96.5,25.5C 96.5,23.8333 96.5,22.1667 96.5,20.5C 97.8333,20.5 99.1667,20.5 100.5,20.5C 100.216,22.4147 100.549,24.0813 101.5,25.5C 102.833,25.5 104.167,25.5 105.5,25.5C 105.5,21.1667 105.5,16.8333 105.5,12.5 Z"/></g>
<g><path style="opacity:1" fill="#7b87a7" d="M 70.5,32.5 C 72.8333,33.1667 75.1667,33.8333 77.5,34.5C 74.6146,34.8064 71.9479,34.4731 69.5,33.5C 69.5,32.8333 69.8333,32.5 70.5,32.5 Z"/></g>
<g><path style="opacity:1" fill="#c7d7f2" d="M 123.5,32.5 C 129.833,31.1667 136.167,31.1667 142.5,32.5C 141.167,32.5 139.833,32.5 138.5,32.5C 138.5,35.5 138.5,38.5 138.5,41.5C 137.883,41.3893 137.383,41.056 137,40.5C 136.802,42.3817 136.302,44.0484 135.5,45.5C 135.5,41.1667 135.5,36.8333 135.5,32.5C 131.5,32.5 127.5,32.5 123.5,32.5 Z"/></g>
<g><path style="opacity:1" fill="#38519b" d="M 121.5,38.5 C 118.838,40.2681 115.838,40.9347 112.5,40.5C 112.5,39.5 112.5,38.5 112.5,37.5C 113.833,37.5 115.167,37.5 116.5,37.5C 116.5,36.5 116.5,35.5 116.5,34.5C 114.833,34.5 113.167,34.5 111.5,34.5C 111.815,38.3714 111.482,42.0381 110.5,45.5C 110.823,41.774 110.489,38.1073 109.5,34.5C 107.817,37.6022 107.151,40.9356 107.5,44.5C 106.839,42.866 106.506,41.0326 106.5,39C 106.6,36.6977 107.267,34.6977 108.5,33C 112.167,32.3333 115.833,32.3333 119.5,33C 121.192,34.4007 121.859,36.2341 121.5,38.5 Z"/></g>
<g><path style="opacity:1" fill="#2d4a9a" d="M 123.5,32.5 C 127.5,32.5 131.5,32.5 135.5,32.5C 135.5,36.8333 135.5,41.1667 135.5,45.5C 134.167,45.5 132.833,45.5 131.5,45.5C 131.5,43.5 131.5,41.5 131.5,39.5C 129.833,39.5 128.167,39.5 126.5,39.5C 126.5,40.8333 126.5,42.1667 126.5,43.5C 127.978,43.238 129.311,43.5713 130.5,44.5C 124.216,47.1983 121.216,45.1983 121.5,38.5C 124.586,37.0147 127.919,36.0147 131.5,35.5C 128.384,35.0799 125.717,34.0799 123.5,32.5 Z"/></g>
<g><path style="opacity:1" fill="#1e439b" d="M 56.5,34.5 C 57.4552,36.7457 58.1218,39.079 58.5,41.5C 56.6159,41.2882 55.2826,40.2882 54.5,38.5C 53.8182,39.2427 53.1515,39.9094 52.5,40.5C 51.71,41.6085 51.21,42.9419 51,44.5C 49.9887,45.3366 48.8221,45.67 47.5,45.5C 47.5,44.1667 47.5,42.8333 47.5,41.5C 48.9641,38.7379 50.2975,35.9046 51.5,33C 53.6742,32.1231 55.3409,32.6231 56.5,34.5 Z"/></g>
<g><path style="opacity:1" fill="#083c9f" d="M 110.5,45.5 C 109.209,45.7373 108.209,45.404 107.5,44.5C 107.151,40.9356 107.817,37.6022 109.5,34.5C 110.489,38.1073 110.823,41.774 110.5,45.5 Z"/></g>
<g><path style="opacity:1" fill="#294c9b" d="M 86.5,32.5 C 90.4367,32.2065 94.27,32.5399 98,33.5C 98.4988,37.4862 98.6655,41.4862 98.5,45.5C 96.8561,45.7135 95.3561,45.3802 94,44.5C 93.5017,41.1832 93.335,37.8499 93.5,34.5C 92.1667,34.5 90.8333,34.5 89.5,34.5C 89.665,37.8499 89.4983,41.1832 89,44.5C 87.9505,45.5171 86.7839,45.6838 85.5,45C 83.9557,40.6202 84.289,36.4536 86.5,32.5 Z"/></g>
<g><path style="opacity:1" fill="#153c92" d="M 142.5,32.5 C 142.335,35.5184 142.502,38.5184 143,41.5C 145.135,43.2785 147.635,43.9452 150.5,43.5C 148.012,45.3878 145.012,46.0545 141.5,45.5C 139.771,44.7638 138.771,43.4305 138.5,41.5C 138.5,38.5 138.5,35.5 138.5,32.5C 139.833,32.5 141.167,32.5 142.5,32.5 Z"/></g>
<g><path style="opacity:1" fill="#1a3f9f" d="M 61.5,44.5 C 61.7678,42.901 61.4345,41.5676 60.5,40.5C 58.9539,38.1175 58.2872,35.4509 58.5,32.5C 59.8221,32.33 60.9887,32.6634 62,33.5C 64.2307,37.2291 65.7307,41.2291 66.5,45.5C 64.7085,45.634 63.0418,45.3007 61.5,44.5 Z"/></g>
<g><path style="opacity:1" fill="#1e459b" d="M 100.5,32.5 C 104.949,32.2556 106.615,34.4223 105.5,39C 106.615,43.5777 104.949,45.7444 100.5,45.5C 100.5,41.1667 100.5,36.8333 100.5,32.5 Z"/></g>
<g><path style="opacity:1" fill="#1d4096" d="M 70.5,32.5 C 81.4303,29.598 85.5969,33.598 83,44.5C 81.9887,45.3366 80.8221,45.67 79.5,45.5C 79.5,43.5 79.5,41.5 79.5,39.5C 77.1667,39.5 74.8333,39.5 72.5,39.5C 72.3249,42.3289 73.6582,43.9955 76.5,44.5C 69.7834,46.8254 67.4501,44.6588 69.5,38C 72.4436,37.0296 75.4436,36.1962 78.5,35.5C 78.3764,34.8933 78.0431,34.56 77.5,34.5C 75.1667,33.8333 72.8333,33.1667 70.5,32.5 Z"/></g>
<g><path style="opacity:1" fill="#becee5" d="M 52.5,40.5 C 52.5,42.5 52.5,44.5 52.5,46.5C 50.5,46.5 48.5,46.5 46.5,46.5C 46.2155,44.5853 46.5489,42.9187 47.5,41.5C 47.5,42.8333 47.5,44.1667 47.5,45.5C 48.8221,45.67 49.9887,45.3366 51,44.5C 51.21,42.9419 51.71,41.6085 52.5,40.5 Z"/></g>
<g><path style="opacity:1" fill="#88a1c9" d="M 150.5,43.5 C 151.404,44.209 151.737,45.209 151.5,46.5C 147.958,46.8128 144.625,46.4794 141.5,45.5C 145.012,46.0545 148.012,45.3878 150.5,43.5 Z"/></g>
<g><path style="opacity:1" fill="#1f4097" d="M 93.5,65.5 C 93.1667,65.5 92.8333,65.5 92.5,65.5C 89.9425,61.2651 89.9425,57.0985 92.5,53C 103.485,49.655 107.652,53.4883 105,64.5C 101.27,65.4601 97.4367,65.7935 93.5,65.5 Z"/></g>
<g><path style="opacity:1" fill="#2f4e9d" d="M 74.5,54.5 C 74.5,53.8333 74.8333,53.5 75.5,53.5C 79.4126,52.4042 83.4126,52.2375 87.5,53C 87.6118,57.1274 87.9451,61.2941 88.5,65.5C 85.6181,65.3924 83.2847,64.2257 81.5,62C 80.6634,60.9887 80.33,59.8221 80.5,58.5C 83.5,58.8333 84.8333,57.5 84.5,54.5C 82.8333,54.5 81.1667,54.5 79.5,54.5C 79.5,58.1667 79.5,61.8333 79.5,65.5C 77.8333,65.5 76.1667,65.5 74.5,65.5C 74.5,61.8333 74.5,58.1667 74.5,54.5 Z"/></g>
<g><path style="opacity:1" fill="#1b4093" d="M 133.5,52.5 C 137.225,52.7796 138.392,54.7796 137,58.5C 136.283,59.0442 135.783,59.7109 135.5,60.5C 133.076,60.8076 130.743,60.4742 128.5,59.5C 131.785,59.3019 133.452,57.6352 133.5,54.5C 131.5,54.5 129.5,54.5 127.5,54.5C 127.5,57.8333 127.5,61.1667 127.5,64.5C 127.5,64.8333 127.5,65.1667 127.5,65.5C 126.167,65.5 124.833,65.5 123.5,65.5C 123.334,61.4862 123.501,57.4862 124,53.5C 127.057,52.5495 130.223,52.2161 133.5,52.5 Z"/></g>
<g><path style="opacity:1" fill="#e5f3fd" d="M 95.5,54.5 C 99.5699,53.508 101.57,55.008 101.5,59C 101.57,62.992 99.5699,64.492 95.5,63.5C 95.5,60.5 95.5,57.5 95.5,54.5 Z"/></g>
<g><path style="opacity:1" fill="#244394" d="M 119.5,65.5 C 119.167,65.5 118.833,65.5 118.5,65.5C 108.154,67.1426 104.488,62.8093 107.5,52.5C 109.144,52.2865 110.644,52.6198 112,53.5C 112.498,56.8168 112.665,60.1501 112.5,63.5C 113.833,63.5 115.167,63.5 116.5,63.5C 116.5,59.8333 116.5,56.1667 116.5,52.5C 117.833,52.5 119.167,52.5 120.5,52.5C 120.769,56.9315 120.436,61.2648 119.5,65.5 Z"/></g>
<g><path style="opacity:1" fill="#bedcf6" d="M 135.5,60.5 C 133.393,61.4682 131.059,61.8016 128.5,61.5C 128.737,62.791 128.404,63.791 127.5,64.5C 127.5,61.1667 127.5,57.8333 127.5,54.5C 129.5,54.5 131.5,54.5 133.5,54.5C 133.452,57.6352 131.785,59.3019 128.5,59.5C 130.743,60.4742 133.076,60.8076 135.5,60.5 Z"/></g>
<g><path style="opacity:1" fill="#1e4292" d="M 72.5,52.5 C 71.0512,54.1644 69.0512,54.9977 66.5,55C 65.1059,55.956 64.4393,57.2894 64.5,59C 66.6751,65.0035 68.1751,64.8369 69,58.5C 70.0113,57.6634 71.1779,57.33 72.5,57.5C 72.7683,60.1194 72.435,62.6194 71.5,65C 68.854,65.4974 66.1873,65.6641 63.5,65.5C 62.2101,64.9423 61.3768,63.9423 61,62.5C 60.3333,59.8333 60.3333,57.1667 61,54.5C 64.5828,52.7098 68.4161,52.0431 72.5,52.5 Z"/></g>
<g><path style="opacity:1" fill="#3b548d" d="M 46.5,72.5 C 81.1667,72.5 115.833,72.5 150.5,72.5C 150.5,73.5 150.5,74.5 150.5,75.5C 116.165,75.6667 81.8317,75.5 47.5,75C 46.7476,74.3292 46.4142,73.4959 46.5,72.5 Z"/></g>
<g><path style="opacity:1" fill="#c5dcfc" d="M 63.5,88.5 C 73.8333,88.5 84.1667,88.5 94.5,88.5C 95.1667,88.5 95.5,88.8333 95.5,89.5C 85.1613,89.3335 74.828,89.5002 64.5,90C 63.6198,91.3561 63.2865,92.8561 63.5,94.5C 61.8958,93.713 61.2291,92.3797 61.5,90.5C 62.5,90.1667 63.1667,89.5 63.5,88.5 Z"/></g>
<g><path style="opacity:1" fill="#f2f8fd" d="M 105.5,88.5 C 115.5,88.5 125.5,88.5 135.5,88.5C 138.147,90.8956 138.147,93.2289 135.5,95.5C 125.5,95.5 115.5,95.5 105.5,95.5C 101.5,93.1667 101.5,90.8333 105.5,88.5 Z"/></g>
<g><path style="opacity:1" fill="#fafdfd" d="M 95.5,89.5 C 97.0622,91.9007 96.7288,93.9007 94.5,95.5C 84.5,95.5 74.5,95.5 64.5,95.5C 63.8333,95.5 63.5,95.1667 63.5,94.5C 63.2865,92.8561 63.6198,91.3561 64.5,90C 74.828,89.5002 85.1613,89.3335 95.5,89.5 Z"/></g>
<g><path style="opacity:1" fill="#0241b2" d="M 149.5,88.5 C 149.5,116.833 149.5,145.167 149.5,173.5C 147.5,173.5 145.5,173.5 143.5,173.5C 139.702,172.517 135.702,172.183 131.5,172.5C 131.5,147.833 131.5,123.167 131.5,98.5C 134.408,98.7377 136.742,97.7377 138.5,95.5C 139.769,93.3052 139.769,91.1385 138.5,89C 142.152,88.5014 145.818,88.3347 149.5,88.5 Z"/></g>
<g><path style="opacity:1" fill="#053897" d="M 63.5,88.5 C 63.1667,89.5 62.5,90.1667 61.5,90.5C 61.2291,92.3797 61.8958,93.713 63.5,94.5C 63.5,95.1667 63.8333,95.5 64.5,95.5C 65.9002,96.1001 66.9002,97.1001 67.5,98.5C 67.5,123.5 67.5,148.5 67.5,173.5C 61.1667,173.5 54.8333,173.5 48.5,173.5C 48.5,144.833 48.5,116.167 48.5,87.5C 53.6946,87.1795 58.6946,87.5128 63.5,88.5 Z"/></g>
<g><path style="opacity:1" fill="#0241b3" d="M 61.5,90.5 C 59.7519,93.9982 60.7519,96.6648 64.5,98.5C 65.086,98.2907 65.586,97.9574 66,97.5C 66.5,122.498 66.6666,147.498 66.5,172.5C 60.8333,172.5 55.1667,172.5 49.5,172.5C 49.5,144.5 49.5,116.5 49.5,88.5C 53.9707,87.9106 57.9707,88.5772 61.5,90.5 Z"/></g>
<g><path style="opacity:1" fill="#0241b3" d="M 91.5,105.5 C 91.3359,102.813 91.5026,100.146 92,97.5C 92.6708,96.7476 93.5041,96.4142 94.5,96.5C 97.9868,95.5554 99.3201,93.2221 98.5,89.5C 99.5,89.5 100.5,89.5 101.5,89.5C 100.573,93.4454 101.906,96.1121 105.5,97.5C 106.5,122.491 106.833,147.491 106.5,172.5C 101.5,172.5 96.5,172.5 91.5,172.5C 91.5,150.167 91.5,127.833 91.5,105.5 Z"/></g>
<g><path style="opacity:1" fill="#506caf" d="M 149.5,87.5 C 149.833,87.5 150.167,87.5 150.5,87.5C 150.5,116.5 150.5,145.5 150.5,174.5C 143.5,174.5 136.5,174.5 129.5,174.5C 129.5,149.167 129.5,123.833 129.5,98.5C 129.833,98.5 130.167,98.5 130.5,98.5C 130.5,123.5 130.5,148.5 130.5,173.5C 134.833,173.5 139.167,173.5 143.5,173.5C 145.5,173.5 147.5,173.5 149.5,173.5C 149.5,145.167 149.5,116.833 149.5,88.5C 149.5,88.1667 149.5,87.8333 149.5,87.5 Z"/></g>
<g><path style="opacity:1" fill="#7290c5" d="M 89.5,98.5 C 90.4682,100.607 90.8016,102.941 90.5,105.5C 90.5,128.167 90.5,150.833 90.5,173.5C 96.1667,173.5 101.833,173.5 107.5,173.5C 107.5,148.5 107.5,123.5 107.5,98.5C 107.833,98.5 108.167,98.5 108.5,98.5C 108.5,123.833 108.5,149.167 108.5,174.5C 102.167,174.5 95.8333,174.5 89.5,174.5C 89.5,149.167 89.5,123.833 89.5,98.5 Z"/></g>
<g><path style="opacity:1" fill="#576fa3" d="M 150.5,87.5 C 150.167,87.5 149.833,87.5 149.5,87.5C 144.637,87.1805 139.97,87.5139 135.5,88.5C 125.5,88.5 115.5,88.5 105.5,88.5C 101.833,87.1667 98.1667,87.1667 94.5,88.5C 84.1667,88.5 73.8333,88.5 63.5,88.5C 58.6946,87.5128 53.6946,87.1795 48.5,87.5C 48.5,116.167 48.5,144.833 48.5,173.5C 54.8333,173.5 61.1667,173.5 67.5,173.5C 67.5,148.5 67.5,123.5 67.5,98.5C 67.8333,98.5 68.1667,98.5 68.5,98.5C 68.5,123.833 68.5,149.167 68.5,174.5C 61.5,174.5 54.5,174.5 47.5,174.5C 47.5,145.167 47.5,115.833 47.5,86.5C 82.0041,86.1683 116.337,86.5017 150.5,87.5 Z"/></g>
<g><path style="opacity:1" fill="#264489" d="M 64.5,95.5 C 74.5,95.5 84.5,95.5 94.5,95.5C 94.5,95.8333 94.5,96.1667 94.5,96.5C 93.5041,96.4142 92.6708,96.7476 92,97.5C 91.5026,100.146 91.3359,102.813 91.5,105.5C 91.1667,105.5 90.8333,105.5 90.5,105.5C 90.8016,102.941 90.4682,100.607 89.5,98.5C 88.8333,98.5 88.1667,98.5 87.5,98.5C 86.6678,123.33 86.1678,148.33 86,173.5C 85.8322,148.33 85.3322,123.33 84.5,98.5C 79.1667,98.5 73.8333,98.5 68.5,98.5C 68.1667,98.5 67.8333,98.5 67.5,98.5C 66.9002,97.1001 65.9002,96.1001 64.5,95.5 Z"/></g>
<g><path style="opacity:1" fill="#5173ad" d="M 84.5,98.5 C 85.3322,123.33 85.8322,148.33 86,173.5C 86.1678,148.33 86.6678,123.33 87.5,98.5C 87.5,123.833 87.5,149.167 87.5,174.5C 86.5,174.5 85.5,174.5 84.5,174.5C 84.5,149.167 84.5,123.833 84.5,98.5 Z"/></g>
<g><path style="opacity:1" fill="#26407f" d="M 105.5,95.5 C 115.5,95.5 125.5,95.5 135.5,95.5C 133.708,96.3091 131.708,96.8091 129.5,97C 130.056,97.3826 130.389,97.8826 130.5,98.5C 130.167,98.5 129.833,98.5 129.5,98.5C 127.509,123.144 126.843,148.144 127.5,173.5C 126.833,148.5 126.167,123.5 125.5,98.5C 119.833,98.5 114.167,98.5 108.5,98.5C 108.167,98.5 107.833,98.5 107.5,98.5C 107.218,97.2223 106.551,96.2223 105.5,95.5 Z"/></g>
<g><path style="opacity:1" fill="#09368f" d="M 149.5,87.5 C 149.5,87.8333 149.5,88.1667 149.5,88.5C 145.818,88.3347 142.152,88.5014 138.5,89C 139.769,91.1385 139.769,93.3052 138.5,95.5C 136.742,97.7377 134.408,98.7377 131.5,98.5C 131.5,123.167 131.5,147.833 131.5,172.5C 135.702,172.183 139.702,172.517 143.5,173.5C 139.167,173.5 134.833,173.5 130.5,173.5C 130.5,148.5 130.5,123.5 130.5,98.5C 130.389,97.8826 130.056,97.3826 129.5,97C 131.708,96.8091 133.708,96.3091 135.5,95.5C 138.147,93.2289 138.147,90.8956 135.5,88.5C 139.97,87.5139 144.637,87.1805 149.5,87.5 Z"/></g>
<g><path style="opacity:1" fill="#0b3590" d="M 94.5,88.5 C 98.1667,87.1667 101.833,87.1667 105.5,88.5C 101.5,90.8333 101.5,93.1667 105.5,95.5C 106.551,96.2223 107.218,97.2223 107.5,98.5C 107.5,123.5 107.5,148.5 107.5,173.5C 101.833,173.5 96.1667,173.5 90.5,173.5C 90.5,150.833 90.5,128.167 90.5,105.5C 90.8333,105.5 91.1667,105.5 91.5,105.5C 91.5,127.833 91.5,150.167 91.5,172.5C 96.5,172.5 101.5,172.5 106.5,172.5C 106.833,147.491 106.5,122.491 105.5,97.5C 101.906,96.1121 100.573,93.4454 101.5,89.5C 100.5,89.5 99.5,89.5 98.5,89.5C 99.3201,93.2221 97.9868,95.5554 94.5,96.5C 94.5,96.1667 94.5,95.8333 94.5,95.5C 96.7288,93.9007 97.0622,91.9007 95.5,89.5C 95.5,88.8333 95.1667,88.5 94.5,88.5 Z"/></g>
<g><path style="opacity:1" fill="#4263a2" d="M 125.5,98.5 C 126.167,123.5 126.833,148.5 127.5,173.5C 127.44,174.043 127.107,174.376 126.5,174.5C 125.5,149.175 125.167,123.842 125.5,98.5 Z"/></g>
<g><path style="opacity:1" fill="#a67b71" d="M 93.5,185.5 C 91.8235,184.817 91.1568,183.483 91.5,181.5C 92.9778,181.238 94.3112,181.571 95.5,182.5C 95.1543,183.696 94.6543,183.696 94,182.5C 93.5172,183.448 93.3505,184.448 93.5,185.5 Z"/></g>
<g><path style="opacity:1" fill="#ac7268" d="M 115.5,182.5 C 118.932,183.898 119.932,186.231 118.5,189.5C 117.063,186.956 115.563,186.956 114,189.5C 113.391,186.935 113.891,184.601 115.5,182.5 Z"/></g>
<g><path style="opacity:1" fill="#9b7169" d="M 141.5,182.5 C 144.85,183.695 145.85,185.862 144.5,189C 140.498,188.968 140.498,188.301 144.5,187C 142.561,186.092 141.561,184.592 141.5,182.5 Z"/></g>
<g><path style="opacity:1" fill="#a2786b" d="M 107.5,182.5 C 108.966,183.347 109.8,184.68 110,186.5C 110.219,185.062 110.719,183.729 111.5,182.5C 112.314,184.952 111.814,187.285 110,189.5C 108.864,187.257 108.03,184.924 107.5,182.5 Z"/></g>
<g><path style="opacity:1" fill="#9d6e64" d="M 87.5,183.5 C 88.2899,184.794 89.2899,185.961 90.5,187C 89.2285,189.261 87.5618,189.761 85.5,188.5C 86.376,187.749 87.376,187.249 88.5,187C 87.4293,186.148 86.4293,185.315 85.5,184.5C 85.4088,182.302 86.0755,181.969 87.5,183.5 Z"/></g>
<g><path style="opacity:1" fill="#956059" d="M 54.5,182.5 C 55.4511,183.919 55.7845,185.585 55.5,187.5C 56.5,187.5 57.5,187.5 58.5,187.5C 59.4216,181.709 59.4216,182.375 58.5,189.5C 57.1779,189.67 56.0113,189.337 55,188.5C 54.5045,186.527 54.3379,184.527 54.5,182.5 Z"/></g>
<g><path style="opacity:1" fill="#a27169" d="M 93.5,185.5 C 96.1009,186.922 95.9342,188.256 93,189.5C 92.5,189.167 92,188.833 91.5,188.5C 92.376,187.749 93.376,187.249 94.5,187C 93.944,186.617 93.6107,186.117 93.5,185.5 Z"/></g>
<g><path style="opacity:1" fill="#837875" d="M 98.5,187.5 C 100.337,187.639 100.67,188.306 99.5,189.5C 98.7025,189.043 98.3691,188.376 98.5,187.5 Z"/></g>
<g><path style="opacity:1" fill="#ae7b71" d="M 47.5,181.5 C 49.4286,181.231 51.0953,181.731 52.5,183C 52.2533,184.813 51.92,186.647 51.5,188.5C 50.2638,189.246 48.9305,189.579 47.5,189.5C 47.5,186.833 47.5,184.167 47.5,181.5 Z"/></g>
<g><path style="opacity:1" fill="#eddbd3" d="M 87.5,183.5 C 86.0755,181.969 85.4088,182.302 85.5,184.5C 84.8826,184.389 84.3826,184.056 84,183.5C 83.5204,185.133 82.6871,186.466 81.5,187.5C 80.6981,186.048 80.1981,184.382 80,182.5C 79.5034,184.81 79.3367,187.143 79.5,189.5C 78.8333,189.5 78.1667,189.5 77.5,189.5C 77.8076,187.076 77.4742,184.743 76.5,182.5C 75.4826,185.028 74.3159,185.028 73,182.5C 72.516,184.193 73.016,185.527 74.5,186.5C 73.4047,189.074 71.4047,190.741 68.5,191.5C 64.9662,191.203 61.6329,190.536 58.5,189.5C 59.4216,182.375 59.4216,181.709 58.5,187.5C 57.5,187.5 56.5,187.5 55.5,187.5C 55.7845,185.585 55.4511,183.919 54.5,182.5C 57.007,181.102 59.3403,181.436 61.5,183.5C 62.3218,185.728 63.6552,186.395 65.5,185.5C 64.4116,184.066 63.0783,183.066 61.5,182.5C 63.5463,181.035 65.3796,181.368 67,183.5C 67.4828,182.552 67.6495,181.552 67.5,180.5C 69.4672,180.739 71.3005,180.406 73,179.5C 78.2393,181.101 83.7393,182.101 89.5,182.5C 88.7997,182.787 88.1331,183.12 87.5,183.5 Z"/></g>
<g><path style="opacity:1" fill="#b7817a" d="M 77.5,189.5 C 76.1001,188.9 75.1001,187.9 74.5,186.5C 73.016,185.527 72.516,184.193 73,182.5C 74.3159,185.028 75.4826,185.028 76.5,182.5C 77.4742,184.743 77.8076,187.076 77.5,189.5 Z"/></g>
<g><path style="opacity:1" fill="#a57d73" d="M 61.5,182.5 C 63.0783,183.066 64.4116,184.066 65.5,185.5C 63.6552,186.395 62.3218,185.728 61.5,183.5C 61.5,183.167 61.5,182.833 61.5,182.5 Z"/></g>
<g><path style="opacity:1" fill="#9b6f62" d="M 81.5,187.5 C 82.3764,187.369 83.0431,187.702 83.5,188.5C 82.3112,189.429 80.9778,189.762 79.5,189.5C 79.3367,187.143 79.5034,184.81 80,182.5C 80.1981,184.382 80.6981,186.048 81.5,187.5 Z"/></g>
<g><path style="opacity:1" fill="#9a6864" d="M 120.5,182.5 C 122.256,183.552 122.923,185.219 122.5,187.5C 123.675,187.281 124.675,187.614 125.5,188.5C 123.955,189.452 122.288,189.785 120.5,189.5C 120.5,187.167 120.5,184.833 120.5,182.5 Z"/></g>
<g><path style="opacity:1" fill="#97685e" d="M 127.5,182.5 C 128.451,183.919 128.784,185.585 128.5,187.5C 129.5,187.5 130.5,187.5 131.5,187.5C 131.215,185.712 131.548,184.045 132.5,182.5C 134.1,185.507 133.433,187.841 130.5,189.5C 127.971,187.937 126.971,185.604 127.5,182.5 Z"/></g>
<g><path style="opacity:1" fill="#9f645e" d="M 135.5,182.5 C 136.451,183.919 136.784,185.585 136.5,187.5C 137.675,187.281 138.675,187.614 139.5,188.5C 138.311,189.429 136.978,189.762 135.5,189.5C 135.5,187.167 135.5,184.833 135.5,182.5 Z"/></g>
</svg>
